<?xml version="1.0" encoding="iso-8859-1"?>
<!-- Uploaded to: SVG Repo, www.svgrepo.com, Generator: SVG Repo Mixer Tools -->
<!DOCTYPE svg PUBLIC "-//W3C//DTD SVG 1.1//EN" "http://www.w3.org/Graphics/SVG/1.1/DTD/svg11.dtd">
<svg height="800px" width="800px" version="1.1" id="Capa_1" xmlns="http://www.w3.org/2000/svg" xmlns:xlink="http://www.w3.org/1999/xlink" 
	 viewBox="0 0 384.418 384.418" xml:space="preserve">
<g>
	<path style="fill:#211915;" d="M336.353,152.895c-21.003-15.937-47.089-24.713-73.454-24.713h-9.251v-14.758
		c0-0.627-0.065-1.238-0.175-1.833l1.001-0.424c5.086-2.152,7.464-8.021,5.312-13.107c-2.152-5.085-8.02-7.462-13.107-5.312
		l-41.146,17.413c-5.086,2.152-7.464,8.021-5.312,13.107c1.614,3.814,5.317,6.105,9.214,6.105c1.299,0,2.621-0.255,3.893-0.793
		l20.321-8.599v8.202h-6.229c-5.523,0-10,4.477-10,10c0,6.366-1.296,12.434-3.637,17.957H64c-5.523,0-10,4.477-10,10v18.192H32.582
		c-4.082,0-7.754,2.481-9.278,6.269L0.722,246.749c-1.239,3.082-0.868,6.578,0.992,9.33c1.859,2.752,4.964,4.401,8.286,4.401h31.554
		c0.068,0.145,0.128,0.291,0.204,0.434l14,26.253c1.738,3.259,5.13,5.294,8.824,5.294h220.52c1.179,0,2.348-0.208,3.455-0.616
		l71.316-26.253c2.561-0.943,4.502-2.825,5.583-5.112h8.963c5.523,0,10-4.477,10-10v-0.779
		C384.418,211.922,366.45,175.732,336.353,152.895z M74,176.139h123.475c-7.45,5.159-16.478,8.192-26.206,8.192H74V176.139z
		 M39.338,204.331h131.931c33.075,0,60.559-24.403,65.395-56.149h26.235c22.025,0,43.819,7.332,61.365,20.646
		c22.682,17.21,37.119,43.5,39.728,71.653H24.8L39.338,204.331z M283.319,272.462H70.582l-6.389-11.981h251.673L283.319,272.462z"/>
</g>
</svg>